<svg width="40" height="40" viewBox="0 0 40 40" fill="none" xmlns="http://www.w3.org/2000/svg">
<rect width="40" height="40" rx="5" fill="#000023"/>
<path d="M34.2636 36.6944L23.4025 25.8333C22.5507 26.5278 21.5349 27.0671 20.355 27.4514C19.1753 27.8356 17.9637 28.0278 16.7203 28.0278C13.4962 28.0278 10.7808 26.9236 8.57392 24.7153C6.36709 22.5069 5.26367 19.8148 5.26367 16.6389C5.26367 13.463 6.36784 10.7708 8.57617 8.5625C10.7845 6.35417 13.4766 5.25 16.6525 5.25C19.8285 5.25 22.5206 6.35417 24.7289 8.5625C26.9373 10.7708 28.0414 13.4643 28.0414 16.643C28.0414 17.8718 27.8585 19.0509 27.4928 20.1805C27.127 21.3102 26.5738 22.3565 25.8331 23.3195L36.7636 34.1945L34.2636 36.6944ZM16.6664 24.5278C18.8748 24.5278 20.7393 23.7635 22.2602 22.235C23.781 20.7064 24.5414 18.841 24.5414 16.6389C24.5414 14.4367 23.7818 12.5713 22.2626 11.0428C20.7434 9.51426 18.8789 8.75 16.6689 8.75C14.4435 8.75 12.5696 9.51426 11.0472 11.0428C9.52483 12.5713 8.76363 14.4367 8.76363 16.6389C8.76363 18.841 9.52483 20.7064 11.0472 22.235C12.5696 23.7635 14.4426 24.5278 16.6664 24.5278Z" fill="#21F3E3"/>
</svg>
